<svg id="Layer_1" data-name="Layer 1" xmlns="http://www.w3.org/2000/svg" xmlns:xlink="http://www.w3.org/1999/xlink" viewBox="0 0 554.83 130.47"><defs><style>.cls-1{fill:none;}.cls-2{fill:#57c8e8;}.cls-3{clip-path:url(#clip-path);}</style><clipPath id="clip-path" transform="translate(-143.53 -232.14)"><rect class="cls-1" width="841.89" height="594.76"/></clipPath></defs><title>FAST (OPT 2) 26.06</title><polygon class="cls-2" points="59.65 58.26 71.51 59.65 61.09 82.15 60.77 82.83 60.06 84.34 57.48 89.91 29.09 89.91 29.16 89.77 29.34 89.4 30.75 86.36 31.08 85.61 31.5 84.69 31.55 84.62 31.69 84.34 32.48 82.63 32.53 82.51 32.78 81.98 33.81 79.72 34.08 79.15 34.47 78.29 35.43 76.22 35.8 75.42 35.85 75.29 36.2 74.58 36.57 73.76 36.96 72.91 0 71.37 38.4 69.79 39.25 67.97 39.62 67.16 40.16 66 12.7 64.87 41.24 63.68 41.35 63.41 42.63 60.65 43.04 59.74 44.34 56.95 44.77 56 45.98 53.39 46.55 52.15 47.73 49.6 48.2 48.58 49.32 46.17 49.93 44.84 50.45 43.74 51.12 42.29 51.64 41.18 52.66 38.95 53.32 37.53 54.1 35.85 54.5 34.96 55.07 33.74 55.1 33.69 55.71 32.37 56.1 31.52 56.81 29.97 56.98 29.61 31.69 27.1 58.15 27.1 58.5 26.35 59.01 25.26 59.62 23.97 60.36 22.3 61.37 20.14 62.01 18.75 62.95 16.73 63.75 14.98 64.77 12.8 65.44 11.34 66.29 9.5 67.13 7.68 67.14 7.64 68.15 5.49 68.87 3.93 69.73 2.07 70.63 0.12 70.67 0.04 138.05 0.04 135.67 5.16 111.68 6.15 134.76 7.1 128.32 20.99 89.31 20.99 81.76 37.34 112.81 37.34 103.2 58.26 59.65 58.26"/><g class="cls-3"><path class="cls-2" d="M496.6,320.53c-1.73.34-3.49.62-5.27.82a73.92,73.92,0,0,1-9.11.55c-6.18,0-11.29-1.07-15.25-3l-14.49-1.45h11.93c-7.79-5.11-9.71-14.13-5.46-24.11h25.8c-.79,3.07-.31,5.32,1.34,6.74a10,10,0,0,0,6.68,2.15c6.73,0,12.18-2.25,14.05-6.28,2.75-6-6.7-7.28-16.2-10.17L470,285l16.1-.66c-9.27-3.6-16.6-9.78-9.57-24.92a42.42,42.42,0,0,1,7.58-11.26l-24.69-1L486.25,246a48.21,48.21,0,0,1,13.32-8.73l24.76-1.62-18.39-.75h0l-23.81-1,38.15-1.57,3.23-.15h1.24c22.83,0,27.62,12.07,22.68,27H521.82c1-3,.25-4.74-1.16-5.79a10.72,10.72,0,0,0-6.29-1.55c-5.93,0-9.42,1.77-10.77,4.86-4.25,9.19,20.87,7.68,30,17.61L511,275.37l24.2,1.17c2.14,3.74,2.3,8.82-1,16-7.12,15.46-21.05,24.69-37.59,28" transform="translate(-143.53 -232.14)"/><polygon class="cls-2" points="480.14 44.96 487.3 29.51 472.89 28.93 487.86 28.32 490.04 23.6 464.54 23.6 475.41 0.02 554.83 0.02 550.91 8.5 521.22 9.74 549.79 10.93 543.95 23.6 518.43 23.6 487.72 89.89 459.34 89.89 464.78 78.16 440.31 77.14 465.73 76.08 467.01 73.3 446.62 72.45 467.82 71.58 479.36 46.68 460.31 44.96 480.14 44.96"/><polygon class="cls-2" points="142.75 67.48 114.05 67.48 108.08 80.42 92.2 81.08 107.48 81.7 107.48 81.71 106.17 84.58 83.54 85.51 105.31 86.42 103.7 89.91 132.41 89.91 139.72 74.05 127.23 73.53 140.21 73 142.75 67.48"/><path class="cls-2" d="M441.88,299.62H413.17l-2.84,6.15h0l-10.82.45,10.41.43-7.1,15.4h28.71l2.46-5.34-14.13-.58,14.68-.61Z" transform="translate(-143.53 -232.14)"/><polygon class="cls-2" points="438.81 67.48 410.1 67.48 407.8 72.47 397.99 72.88 407.44 73.26 407.43 73.27 406.29 75.75 389.7 76.44 405.66 77.11 405.66 77.11 399.75 89.91 428.46 89.91 429.89 86.82 422.73 86.52 430.17 86.21 438.81 67.48"/><path class="cls-2" d="M348.93,232.16l18.3,1.83-20.8,25.73L314,261.06l30.34,1.27h0l13.8.55.4,0L343,264.48H326l15.44,1.4-38.69,47.86H284.15l17.23,1.73L296.07,322h27.8l8.75-11.87h23.26l14.33-.05,9.22,0-19.07,3.05-1.62,8.9H387l10.55-89.87Zm-2.28,59.28L364,267.92l2.55-3.44,3.86-5.25-.94,5.25,0,.13L365,289.33l11.59,2.11Z" transform="translate(-143.53 -232.14)"/><polygon class="cls-2" points="28.88 105.18 44.16 105.18 44.16 108.47 32.48 108.47 32.48 114.07 42.84 114.07 42.84 117.36 32.48 117.36 32.48 125.72 28.88 125.72 28.88 105.18"/><path class="cls-2" d="M191.07,352.23v-9.86h3.55v8.8c0,2.44,1.2,3.79,3.32,3.79s3.49-1.41,3.49-3.85v-8.74H205v15.49h-3.55v-2.41a5.59,5.59,0,0,1-4.84,2.73c-3.52,0-5.52-2.31-5.52-5.95" transform="translate(-143.53 -232.14)"/><path class="cls-2" d="M210.18,353.58v-8.16h-2v-3.05h2v-4.26h3.55v4.26h4.16v3.05h-4.16V353a1.69,1.69,0,0,0,1.9,1.94,4.85,4.85,0,0,0,2.2-.53v2.9a6.25,6.25,0,0,1-3.19.79c-2.62,0-4.46-1.14-4.46-4.54" transform="translate(-143.53 -232.14)"/><path class="cls-2" d="M221.3,352.23v-9.86h3.55v8.8c0,2.44,1.2,3.79,3.31,3.79s3.49-1.41,3.49-3.85v-8.74h3.55v15.49h-3.55v-2.41a5.57,5.57,0,0,1-4.84,2.73c-3.52,0-5.51-2.31-5.51-5.95" transform="translate(-143.53 -232.14)"/><path class="cls-2" d="M239.67,342.37h3.55v3.49c1-2.35,2.76-3.9,5.48-3.78v3.75h-.2c-3.14,0-5.28,2-5.28,6.13v5.9h-3.55Z" transform="translate(-143.53 -232.14)"/><path class="cls-2" d="M250.94,350.17v-.05c0-4.46,3.14-8.07,7.57-8.07,4.93,0,7.42,3.87,7.42,8.33,0,.32,0,.64-.06,1H254.49a4.28,4.28,0,0,0,4.46,3.93,5.62,5.62,0,0,0,4.19-1.85l2.09,1.85a7.89,7.89,0,0,1-6.34,2.9,7.74,7.74,0,0,1-7.95-8M262.41,349c-.24-2.26-1.59-4.08-3.93-4.08s-3.7,1.64-4,4.08Z" transform="translate(-143.53 -232.14)"/><path class="cls-2" d="M286,337.18h3.35l9,20.68h-3.81l-2.08-5h-9.71l-2.12,5H277Zm5.17,12.52-3.55-8.21-3.52,8.21Z" transform="translate(-143.53 -232.14)"/><path class="cls-2" d="M301,352.23v-9.86h3.55v8.8c0,2.44,1.2,3.79,3.31,3.79s3.5-1.41,3.5-3.85v-8.74h3.55v15.49h-3.55v-2.41a5.59,5.59,0,0,1-4.84,2.73c-3.53,0-5.52-2.31-5.52-5.95" transform="translate(-143.53 -232.14)"/><path class="cls-2" d="M320.13,353.58v-8.16h-2v-3.05h2v-4.26h3.55v4.26h4.17v3.05h-4.17V353a1.7,1.7,0,0,0,1.91,1.94,4.88,4.88,0,0,0,2.2-.53v2.9a6.29,6.29,0,0,1-3.2.79c-2.61,0-4.46-1.14-4.46-4.54" transform="translate(-143.53 -232.14)"/><path class="cls-2" d="M330.58,350.2v-.06a8.09,8.09,0,0,1,8.28-8.09,8,8,0,0,1,8.24,8v.05a8.11,8.11,0,0,1-8.3,8.07,8,8,0,0,1-8.22-8m13,0v-.06a4.79,4.79,0,0,0-4.75-5,4.65,4.65,0,0,0-4.67,4.93v.05a4.82,4.82,0,0,0,4.73,5,4.65,4.65,0,0,0,4.69-4.93" transform="translate(-143.53 -232.14)"/><path class="cls-2" d="M350.71,342.37h3.55v2.35a5.56,5.56,0,0,1,4.73-2.67,4.86,4.86,0,0,1,4.6,2.72,6.33,6.33,0,0,1,5.25-2.72c3.41,0,5.43,2.14,5.43,5.92v9.89h-3.55v-8.8c0-2.47-1.14-3.79-3.14-3.79s-3.31,1.35-3.31,3.85v8.74h-3.55V349c0-2.44-1.15-3.76-3.14-3.76s-3.32,1.44-3.32,3.88v8.71h-3.55Z" transform="translate(-143.53 -232.14)"/><path class="cls-2" d="M377.74,350.2v-.06a8.09,8.09,0,0,1,8.27-8.09,8,8,0,0,1,8.25,8v.05a8.11,8.11,0,0,1-8.3,8.07,8,8,0,0,1-8.22-8m13,0v-.06a4.79,4.79,0,0,0-4.75-5,4.65,4.65,0,0,0-4.67,4.93v.05a4.82,4.82,0,0,0,4.72,5,4.66,4.66,0,0,0,4.7-4.93" transform="translate(-143.53 -232.14)"/><path class="cls-2" d="M398.6,353.58v-8.16h-2v-3.05h2v-4.26h3.55v4.26h4.17v3.05h-4.17V353a1.7,1.7,0,0,0,1.91,1.94,4.88,4.88,0,0,0,2.2-.53v2.9a6.29,6.29,0,0,1-3.2.79c-2.61,0-4.46-1.14-4.46-4.54" transform="translate(-143.53 -232.14)"/><path class="cls-2" d="M410,336.62h3.82V340H410Zm.15,5.75h3.55v15.49h-3.55Z" transform="translate(-143.53 -232.14)"/><polygon class="cls-2" points="273.3 110.23 277.11 110.23 281.28 121.61 285.47 110.23 289.2 110.23 282.86 125.83 279.66 125.83 273.3 110.23"/><path class="cls-2" d="M434.91,350.17v-.05c0-4.46,3.14-8.07,7.57-8.07,4.92,0,7.42,3.87,7.42,8.33,0,.32,0,.64-.06,1H438.46a4.28,4.28,0,0,0,4.46,3.93,5.62,5.62,0,0,0,4.19-1.85l2.08,1.85a7.86,7.86,0,0,1-6.33,2.9,7.74,7.74,0,0,1-7.95-8M446.38,349c-.24-2.26-1.59-4.08-3.93-4.08s-3.7,1.64-4,4.08Z" transform="translate(-143.53 -232.14)"/><path class="cls-2" d="M461.32,354.87l2.17-2.58A9.32,9.32,0,0,0,470,355c2.23,0,3.64-1,3.64-2.59v-.05c0-1.44-.82-2.29-4.64-3.14-4.37-1-6.83-2.38-6.83-6.14V343c0-3.52,2.93-6,7-6a11.39,11.39,0,0,1,7.45,2.58l-1.93,2.73a9.4,9.4,0,0,0-5.58-2.11c-2.11,0-3.34,1-3.34,2.43v.06c0,1.61.94,2.29,4.87,3.23,4.34,1.11,6.6,2.58,6.6,6V352c0,3.87-3,6.13-7.34,6.13a12.44,12.44,0,0,1-8.56-3.28" transform="translate(-143.53 -232.14)"/><path class="cls-2" d="M480.21,350.2v-.06a8.1,8.1,0,0,1,8.28-8.09,8,8,0,0,1,8.24,8v.05a8.11,8.11,0,0,1-8.3,8.07,8,8,0,0,1-8.22-8m13,0v-.06a4.78,4.78,0,0,0-4.75-5,4.64,4.64,0,0,0-4.66,4.93v.05a4.82,4.82,0,0,0,4.72,5,4.65,4.65,0,0,0,4.69-4.93" transform="translate(-143.53 -232.14)"/><rect class="cls-2" x="357.02" y="104.3" width="3.55" height="21.42"/><path class="cls-2" d="M508.56,352.23v-9.86h3.55v8.8c0,2.44,1.21,3.79,3.32,3.79s3.49-1.41,3.49-3.85v-8.74h3.55v15.49h-3.55v-2.41a5.58,5.58,0,0,1-4.84,2.73c-3.52,0-5.52-2.31-5.52-5.95" transform="translate(-143.53 -232.14)"/><path class="cls-2" d="M527.67,353.58v-8.16h-2v-3.05h2v-4.26h3.55v4.26h4.16v3.05h-4.16V353a1.69,1.69,0,0,0,1.9,1.94,4.85,4.85,0,0,0,2.2-.53v2.9a6.22,6.22,0,0,1-3.19.79c-2.61,0-4.46-1.14-4.46-4.54" transform="translate(-143.53 -232.14)"/><path class="cls-2" d="M539,336.62h3.81V340H539Zm.14,5.75h3.55v15.49h-3.55Z" transform="translate(-143.53 -232.14)"/><path class="cls-2" d="M546.51,350.2v-.06a8.26,8.26,0,0,1,16.52-.05v.05a8.12,8.12,0,0,1-8.31,8.07,8,8,0,0,1-8.21-8m13,0v-.06a4.79,4.79,0,0,0-4.76-5,4.65,4.65,0,0,0-4.66,4.93v.05a4.82,4.82,0,0,0,4.72,5,4.66,4.66,0,0,0,4.7-4.93" transform="translate(-143.53 -232.14)"/><path class="cls-2" d="M566.64,342.37h3.55v2.4a5.58,5.58,0,0,1,4.84-2.72c3.52,0,5.52,2.31,5.52,5.95v9.86H577v-8.8c0-2.44-1.21-3.79-3.32-3.79s-3.49,1.41-3.49,3.85v8.74h-3.55Z" transform="translate(-143.53 -232.14)"/><polygon class="cls-2" points="455.56 108.53 449.05 108.53 449.05 105.18 465.71 105.18 465.71 108.53 459.2 108.53 459.2 125.72 455.56 125.72 455.56 108.53"/><path class="cls-2" d="M609.6,350.17v-.05c0-4.46,3.14-8.07,7.57-8.07,4.93,0,7.42,3.87,7.42,8.33,0,.32,0,.64-.06,1H613.15a4.28,4.28,0,0,0,4.46,3.93,5.65,5.65,0,0,0,4.2-1.85l2.08,1.85a7.88,7.88,0,0,1-6.34,2.9,7.74,7.74,0,0,1-7.95-8M621.07,349c-.23-2.26-1.58-4.08-3.93-4.08-2.2,0-3.7,1.64-4,4.08Z" transform="translate(-143.53 -232.14)"/><path class="cls-2" d="M626.92,355.84l1.58-2.41a8.63,8.63,0,0,0,5.08,1.91c1.52,0,2.4-.65,2.4-1.68v-.05c0-1.18-1.64-1.62-3.46-2.17-2.26-.62-4.84-1.59-4.84-4.55v-.06c0-2.94,2.43-4.72,5.51-4.72a10.73,10.73,0,0,1,5.7,1.75l-1.41,2.53a9,9,0,0,0-4.37-1.47c-1.38,0-2.17.65-2.17,1.56v0c0,1.06,1.7,1.62,3.49,2.18,2.23.7,4.81,1.73,4.81,4.52v0c0,3.26-2.53,4.87-5.75,4.87a10.89,10.89,0,0,1-6.57-2.31" transform="translate(-143.53 -232.14)"/><path class="cls-2" d="M643.29,353.58v-8.16h-2v-3.05h2v-4.26h3.55v4.26H651v3.05h-4.17V353a1.69,1.69,0,0,0,1.91,1.94,4.92,4.92,0,0,0,2.2-.53v2.9a6.29,6.29,0,0,1-3.2.79c-2.61,0-4.46-1.14-4.46-4.54" transform="translate(-143.53 -232.14)"/><path class="cls-2" d="M654.65,336.62h3.81V340h-3.81Zm.14,5.75h3.55v15.49h-3.55Z" transform="translate(-143.53 -232.14)"/><path class="cls-2" d="M663,342.37h3.55v2.4a5.59,5.59,0,0,1,4.84-2.72c3.52,0,5.52,2.31,5.52,5.95v9.86h-3.55v-8.8c0-2.44-1.21-3.79-3.32-3.79s-3.49,1.41-3.49,3.85v8.74H663Z" transform="translate(-143.53 -232.14)"/><path class="cls-2" d="M681.15,360.77l1.32-2.68a10,10,0,0,0,5.51,1.65c3.17,0,4.9-1.62,4.9-4.76v-1.2a6.49,6.49,0,0,1-5.45,2.85,7,7,0,0,1-7-7.25v-.06a7,7,0,0,1,7-7.27,6.66,6.66,0,0,1,5.42,2.64v-2.32h3.55v12.32c0,2.58-.64,4.52-2,5.84s-3.55,2.08-6.37,2.08a13.07,13.07,0,0,1-6.92-1.84m11.76-11.39v-.06a4.33,4.33,0,0,0-4.55-4.28,4.18,4.18,0,0,0-4.4,4.25v.06a4.23,4.23,0,0,0,4.4,4.29,4.35,4.35,0,0,0,4.55-4.26" transform="translate(-143.53 -232.14)"/><polygon class="cls-2" points="552.87 68.16 524.16 68.16 521.87 73.15 512.06 73.56 521.5 73.95 521.33 74.32 521.32 74.32 510.5 74.77 520.92 75.2 520.35 76.44 503.76 77.12 519.73 77.79 513.82 90.6 542.53 90.6 543.96 87.5 536.79 87.2 544.24 86.89 544.99 85.26 530.85 84.68 545.54 84.07 552.87 68.16"/></g></svg>